<?xml version="1.0" encoding="utf-8"?>
<!-- Generator: Adobe Illustrator 24.1.1, SVG Export Plug-In . SVG Version: 6.00 Build 0)  -->
<svg version="1.1" id="Ebene_1" xmlns="http://www.w3.org/2000/svg" xmlns:xlink="http://www.w3.org/1999/xlink" x="0px" y="0px"
	 viewBox="0 0 88 88" style="enable-background:new 0 0 88 88;" xml:space="preserve">
<style type="text/css">
	.st0{fill:#417D9E;}
	.st1{fill:#FFFFFF;}
</style>
<g>
	<path class="st0" d="M4,14C4,8.5,8.5,4,14,4h60c5.5,0,10,4.5,10,10v60c0,5.5-4.5,10-10,10H14C8.5,84,4,79.5,4,74V14z"/>
</g>
<path class="st1" d="M18.5,41.5c-1.4,1.4-1.4,3.6,0,4.9l22.3,22.3c1.4,1.4,3.6,1.4,4.9,0c1.4-1.4,1.4-3.6,0-4.9L26,44l19.8-19.8
	c1.4-1.4,1.4-3.6,0-4.9c-1.4-1.4-3.6-1.4-4.9,0L18.5,41.5z M70.5,40.5H21v7h49.5V40.5z"/>
</svg>
